<?xml version="1.0" standalone="no"?>
<!DOCTYPE svg PUBLIC "-//W3C//DTD SVG 20010904//EN"
 "http://www.w3.org/TR/2001/REC-SVG-20010904/DTD/svg10.dtd">
<svg version="1.0" xmlns="http://www.w3.org/2000/svg"
 width="370.000000pt" height="300.000000pt" viewBox="0 0 370.000000 300.000000"
 preserveAspectRatio="xMidYMid meet">

<g transform="translate(0.000000,300.000000) scale(0.100000,-0.100000)"
fill="#000000" stroke="none">
<path d="M1068 2836 c-55 -15 -112 -51 -162 -102 -44 -45 -75 -136 -83 -244
-4 -50 -11 -79 -21 -86 -10 -7 -17 -33 -20 -71 -5 -67 22 -137 57 -148 21 -6
24 -21 35 -153 3 -35 13 -91 22 -125 15 -56 15 -68 3 -107 -9 -29 -23 -49 -39
-57 -14 -6 -99 -48 -190 -92 -91 -44 -182 -95 -203 -113 -47 -40 -53 -65 -102
-413 -68 -481 -81 -663 -58 -842 12 -93 21 -133 30 -133 8 0 11 9 8 28 -33
201 -33 367 0 641 14 113 27 213 30 221 3 8 16 98 30 200 14 102 29 201 32
220 4 30 15 42 82 87 42 29 148 86 237 126 154 70 162 73 173 54 7 -10 15 -17
18 -14 3 3 -2 16 -11 29 -16 23 -21 59 -10 71 4 3 20 -7 37 -24 16 -17 61 -46
99 -65 153 -77 195 -148 205 -346 l6 -118 -31 0 -32 0 -1 98 c-1 53 -5 108
-10 122 -5 16 -7 -19 -6 -98 3 -130 7 -142 53 -142 41 0 47 22 41 143 -3 76
-12 131 -26 171 -12 33 -21 68 -21 78 0 27 45 68 74 68 13 0 47 15 75 34 48
33 51 33 51 13 0 -15 3 -18 11 -10 11 11 36 -2 268 -131 46 -25 85 -46 88 -46
2 0 28 -15 57 -34 60 -39 67 -54 86 -211 6 -49 22 -171 35 -270 54 -401 65
-492 67 -545 2 -61 -10 -292 -18 -327 -3 -15 0 -23 9 -23 10 0 16 38 25 153 7
84 10 173 7 197 -15 147 -48 414 -65 530 -11 74 -25 180 -30 235 -13 115 -14
121 -42 197 -19 48 -29 60 -72 86 -84 48 -318 178 -363 201 -46 23 -52 38 -28
75 22 33 38 178 30 268 -6 67 -5 79 9 84 61 23 76 214 17 214 -17 0 -19 10
-23 118 -3 100 -7 125 -29 173 -29 61 -87 116 -160 148 -52 24 -175 27 -251 7z
m257 -35 c70 -33 107 -69 133 -131 22 -49 40 -155 26 -148 -131 64 -200 77
-313 61 -103 -16 -188 -45 -268 -94 l-66 -39 7 60 c8 66 35 154 61 193 24 37
117 98 172 113 27 7 80 13 118 13 57 1 81 -4 130 -28z m37 -247 c56 -16 58
-18 58 -51 0 -20 9 -46 20 -60 29 -37 32 -73 21 -248 -10 -160 -25 -231 -58
-267 -23 -25 -58 -22 -81 7 -18 22 -27 25 -87 25 -60 0 -69 -3 -87 -25 -28
-36 -73 -33 -121 6 -21 17 -44 43 -52 59 -22 42 -45 191 -45 287 l0 84 44 47
c37 39 43 52 39 78 -5 31 -4 31 59 47 91 24 97 25 167 26 36 0 91 -6 123 -15z
m-514 -176 c7 -7 12 -21 12 -32 0 -18 -1 -19 -20 -1 -11 10 -20 14 -20 8 0 -5
9 -18 20 -28 15 -14 20 -31 20 -72 0 -39 -4 -54 -12 -51 -20 6 -48 70 -48 108
0 71 19 97 48 68z m698 -43 c8 -47 -2 -98 -26 -127 l-20 -23 2 63 c1 38 7 67
15 73 7 6 13 16 13 21 0 6 -7 5 -15 -2 -12 -10 -15 -10 -15 2 0 42 38 36 46
-7z m-318 -670 c-6 -14 -14 -22 -17 -18 -3 5 -14 16 -24 26 -18 16 -17 17 17
17 34 0 35 -1 24 -25z"/>
<path d="M2425 1701 c-9 -15 -75 -201 -75 -212 0 -23 32 -20 55 5 29 31 55 34
62 6 5 -20 47 -29 56 -12 5 7 -46 193 -58 211 -8 14 -32 14 -40 2z m21 -138
c-14 -14 -23 4 -13 27 l10 25 5 -23 c2 -13 1 -26 -2 -29z"/>
<path d="M2990 1686 c-53 -141 -70 -200 -58 -208 18 -11 38 -10 38 1 0 16 30
41 50 41 10 0 20 -9 23 -20 5 -20 41 -28 51 -11 3 5 -1 30 -8 57 -8 27 -21 75
-30 107 -13 45 -21 57 -37 57 -11 0 -23 -10 -29 -24z m26 -124 c-12 -11 -18 7
-10 30 l8 23 4 -23 c2 -13 1 -26 -2 -30z"/>
<path d="M2280 1631 c0 -38 -3 -76 -6 -85 -7 -18 -39 -22 -49 -6 -9 15 -25 2
-25 -19 0 -22 30 -51 53 -51 9 0 28 11 43 24 26 21 28 30 32 115 l4 91 -26 0
c-26 0 -26 -1 -26 -69z"/>
<path d="M2557 1693 c-3 -5 -8 -54 -12 -110 l-7 -103 25 0 c22 0 25 5 31 53
l7 52 24 -40 c44 -75 51 -82 68 -65 11 11 16 44 19 115 3 97 2 100 -19 103
-21 3 -23 -1 -23 -42 0 -25 -4 -47 -8 -50 -5 -3 -21 17 -37 45 -27 45 -56 63
-68 42z"/>
<path d="M2785 1688 c-48 -28 -67 -100 -41 -161 37 -89 156 -66 156 30 0 43 0
43 -35 43 -42 0 -58 -25 -30 -46 24 -18 6 -39 -23 -30 -40 13 -36 107 4 123 9
3 30 1 46 -5 24 -9 30 -8 39 11 9 17 8 23 -7 34 -22 16 -82 17 -109 1z"/>
<path d="M3125 1688 c-2 -7 -6 -57 -8 -111 l-5 -98 26 3 c25 3 27 8 32 56 l5
52 28 -54 c52 -99 72 -85 82 57 l7 109 -23 -4 c-21 -3 -25 -10 -29 -58 l-5
-55 -33 58 c-23 39 -40 57 -53 57 -11 0 -21 -6 -24 -12z"/>
<path d="M1366 1641 l-40 -46 44 42 c24 23 42 44 40 46 -3 2 -23 -17 -44 -42z"/>
<path d="M1010 1659 c27 -21 80 -52 80 -46 0 2 -20 18 -44 35 -49 35 -76 44
-36 11z"/>
<path d="M1230 1455 c0 -8 5 -15 10 -15 6 0 10 7 10 15 0 8 -4 15 -10 15 -5 0
-10 -7 -10 -15z"/>
<path d="M1857 1300 c-9 -63 -16 -131 -15 -150 1 -19 -1 -53 -5 -75 -4 -22 -4
-35 -1 -28 10 22 62 228 58 232 -2 2 -11 -24 -20 -58 -10 -33 -19 -59 -21 -57
-3 2 3 52 12 110 9 58 15 113 13 123 -2 10 -11 -34 -21 -97z"/>
<path d="M798 1373 c7 -3 16 -2 19 1 4 3 -2 6 -13 5 -11 0 -14 -3 -6 -6z"/>
<path d="M848 1363 c7 -3 16 -2 19 1 4 3 -2 6 -13 5 -11 0 -14 -3 -6 -6z"/>
<path d="M2830 1350 c-23 -43 -71 -193 -66 -206 8 -22 32 -17 50 11 20 30 52
33 61 5 8 -26 55 -28 55 -2 0 20 -45 186 -55 202 -10 16 -33 11 -45 -10z m30
-111 c0 -10 -6 -19 -14 -19 -9 0 -12 8 -8 25 5 28 22 24 22 -6z"/>
<path d="M893 1353 c9 -2 23 -2 30 0 6 3 -1 5 -18 5 -16 0 -22 -2 -12 -5z"/>
<path d="M2213 1348 c-4 -7 -9 -59 -11 -116 l-4 -103 68 3 c67 3 69 4 72 31 3
26 2 27 -43 27 l-46 0 7 85 c6 82 6 85 -14 85 -11 0 -24 -6 -29 -12z"/>
<path d="M2376 1344 c-3 -9 -6 -49 -6 -89 0 -92 18 -120 79 -120 24 0 47 7 57
17 19 19 33 82 34 156 0 48 -2 52 -24 52 -22 0 -23 -4 -30 -82 -7 -90 -17
-109 -44 -91 -14 9 -16 24 -14 92 4 80 3 81 -21 81 -14 0 -28 -7 -31 -16z"/>
<path d="M2584 1352 c-17 -11 -33 -201 -18 -213 20 -16 44 1 44 31 0 28 15 40
49 40 10 0 30 9 45 21 21 16 26 29 26 63 0 23 -5 47 -12 54 -13 13 -116 16
-134 4z m96 -66 c0 -16 -7 -26 -22 -30 -36 -9 -38 -8 -38 24 0 27 3 30 30 30
25 0 30 -4 30 -24z"/>
<path d="M512 1340 c18 -50 20 -62 9 -56 -5 4 7 -32 28 -79 38 -85 51 -108 51
-88 0 13 -80 226 -87 233 -4 3 -4 -2 -1 -10z"/>
<path d="M1230 1316 c0 -8 5 -18 10 -21 6 -3 10 3 10 14 0 12 -4 21 -10 21 -5
0 -10 -6 -10 -14z"/>
<path d="M615 970 c3 -36 9 -222 15 -415 9 -350 14 -405 32 -405 6 0 8 7 4 15
-3 8 -8 146 -11 307 -6 299 -20 504 -36 542 -6 14 -8 0 -4 -44z"/>
<path d="M1801 978 c-34 -163 -44 -271 -50 -538 -4 -157 -6 -287 -4 -289 13
-17 18 46 25 292 6 259 26 468 54 565 4 13 2 22 -4 22 -6 0 -15 -24 -21 -52z"/>
<path d="M3020 1006 c-53 -141 -70 -200 -58 -208 18 -11 38 -10 38 1 0 16 31
41 51 41 12 0 19 -7 19 -20 0 -15 7 -20 24 -20 14 0 27 4 30 9 3 4 -8 55 -24
112 -17 57 -30 105 -30 106 0 2 -9 3 -20 3 -12 0 -24 -10 -30 -24z m26 -124
c-12 -11 -18 7 -10 30 l8 23 4 -23 c2 -13 1 -26 -2 -30z"/>
<path d="M2252 1010 c-12 -5 -27 -21 -33 -34 -15 -32 6 -67 50 -86 40 -16 43
-45 4 -36 -58 14 -68 12 -68 -14 0 -19 8 -27 38 -39 34 -13 42 -12 71 2 62 29
54 99 -13 127 -37 15 -44 46 -8 35 44 -14 62 -11 65 11 2 17 -5 24 -29 33 -37
13 -46 13 -77 1z"/>
<path d="M2393 1008 c-11 -20 -17 -198 -6 -209 21 -21 43 2 43 47 0 43 1 44
34 44 l34 0 -5 -43 c-4 -33 -1 -45 9 -50 34 -12 42 10 46 117 4 101 3 106 -16
106 -22 0 -32 -18 -32 -56 0 -20 -5 -24 -30 -24 -28 0 -30 2 -30 40 0 33 -3
40 -19 40 -11 0 -23 -6 -28 -12z"/>
<path d="M2622 1004 c-77 -54 -66 -191 17 -209 85 -18 151 97 106 184 -22 44
-80 56 -123 25z m76 -56 c28 -28 6 -98 -31 -98 -30 0 -47 18 -47 49 0 46 49
78 78 49z"/>
<path d="M2796 1012 c-2 -4 -8 -56 -12 -115 l-7 -107 71 0 c53 0 71 4 76 15
11 30 -5 45 -48 45 l-41 0 4 85 c3 80 2 85 -17 85 -12 0 -23 -3 -26 -8z"/>
<path d="M3157 1013 c-18 -18 -6 -44 24 -50 l31 -6 -4 -81 c-3 -81 -3 -81 22
-81 25 0 25 2 28 88 l3 87 29 0 c25 0 30 4 30 25 0 25 -1 25 -78 25 -43 0 -82
-3 -85 -7z"/>
<path d="M3346 834 c-3 -8 -1 -25 6 -37 6 -12 10 -24 9 -27 -1 -2 2 -6 7 -8
13 -4 36 54 28 73 -7 20 -42 19 -50 -1z"/>
<path d="M1268 689 c-21 -11 -38 -22 -38 -24 0 -3 18 4 40 15 22 11 40 23 40
25 0 7 0 7 -42 -16z"/>
<path d="M1188 644 c-38 -20 -36 -28 2 -9 17 9 30 18 30 20 0 7 -1 6 -32 -11z"/>
<path d="M1124 604 c-18 -14 -18 -15 4 -4 12 6 22 13 22 15 0 8 -5 6 -26 -11z"/>
<path d="M492 513 c-24 -8 -41 -17 -39 -19 2 -2 28 5 58 15 30 11 47 20 39 19
-8 0 -34 -6 -58 -15z"/>
<path d="M1853 513 c20 -2 54 -2 75 0 20 2 3 4 -38 4 -41 0 -58 -2 -37 -4z"/>
</g>
</svg>
